<?xml version="1.0" encoding="UTF-8"?>
<svg id="Layer_1" xmlns="http://www.w3.org/2000/svg" viewBox="0 0 216 216">
  <defs>
    <style>
      .cls-1 {
        fill: #f1644c;
      }

      .cls-2 {
        fill: #212222;
      }

      .cls-3 {
        fill: #ff6448;
      }
    </style>
  </defs>
  <path class="cls-1" d="M48.88,128.8l-15.98-13.49v-23.64l16.1,13.59,22.9-18.05.02,23.41-23.04,18.18ZM49,120.62l16.57-13.07v-7.26l-16.7,13.17-9.63-8.13v7.03l9.76,8.25Z"/>
  <path class="cls-2" d="M92.76,94.38c1.31,0,2.38.15,3.23.45.86.3,1.56.7,2.08,1.26.51.55.88,1.22,1.11,2.01.21.79.32,1.66.32,2.6v9.09c-.62.13-1.5.3-2.61.49-1.11.19-2.48.28-4.07.28-1.01,0-1.91-.09-2.72-.26-.81-.17-1.52-.47-2.1-.88-.6-.41-1.05-.92-1.35-1.58-.32-.64-.47-1.43-.47-2.37s.17-1.66.54-2.28c.36-.62.86-1.13,1.46-1.49.6-.36,1.31-.64,2.1-.81.79-.17,1.61-.26,2.44-.26.58,0,1.07.02,1.52.06.45.04.79.11,1.07.19v-.41c0-.75-.24-1.34-.69-1.79-.45-.45-1.24-.68-2.36-.68-.75,0-1.48.06-2.21.17-.73.11-1.35.26-1.88.45l-.56-3.52c.26-.09.58-.17.96-.26.39-.09.79-.17,1.24-.23.45-.06.92-.13,1.43-.17.49-.02.98-.06,1.5-.06ZM93.12,107.18c.43,0,.84,0,1.24-.02.39-.02.71-.04.94-.09v-3.31c-.17-.04-.45-.09-.79-.13-.36-.04-.69-.06-.96-.06-.41,0-.79.02-1.16.06-.36.04-.69.15-.96.28-.28.13-.49.32-.64.55-.15.23-.24.53-.24.88,0,.68.24,1.15.69,1.43.45.28,1.07.41,1.88.41ZM107.49,90.34c0,.81-.26,1.43-.77,1.9-.51.47-1.13.68-1.84.68s-1.33-.23-1.84-.68c-.51-.47-.77-1.09-.77-1.9s.26-1.43.77-1.9c.51-.47,1.13-.68,1.84-.68s1.33.23,1.84.68c.51.45.77,1.09.77,1.9ZM107.08,110.24h-4.39v-15.43h4.39v15.43ZM120.19,98.67c-.39-.11-.86-.19-1.39-.3-.54-.11-1.09-.17-1.71-.17-.28,0-.6.02-.98.06-.39.04-.66.11-.88.17v11.8h-4.39v-14.62c.79-.28,1.71-.53,2.78-.77,1.07-.23,2.27-.36,3.58-.36.24,0,.51.02.86.04.34.02.66.06,1.01.13.34.04.66.11,1.01.17.34.06.62.15.86.26l-.73,3.59ZM137.64,102.53c0,1.24-.17,2.35-.54,3.35-.36,1-.9,1.86-1.58,2.56-.69.7-1.54,1.24-2.53,1.62-1.01.38-2.14.58-3.43.58-.54,0-1.09-.02-1.67-.06-.58-.04-1.16-.11-1.71-.19-.56-.09-1.09-.17-1.61-.28-.51-.11-.96-.21-1.35-.34v-19.13l4.39-3.44v7.96c.49-.21,1.01-.38,1.54-.49.54-.13,1.09-.17,1.71-.17,1.09,0,2.08.19,2.91.58.84.38,1.54.92,2.12,1.62.58.7,1.01,1.56,1.31,2.54.28.96.43,2.07.43,3.29ZM133.16,102.4c0-2.82-1.05-4.23-3.13-4.23-.45,0-.9.06-1.35.17-.45.13-.79.26-1.07.45v7.96c.21.04.49.06.84.11.34.02.71.04,1.09.04,1.2,0,2.1-.41,2.72-1.24.58-.83.9-1.92.9-3.27ZM145.86,94.38c1.31,0,2.38.15,3.23.45.86.3,1.56.7,2.08,1.26.51.55.88,1.22,1.11,2.01.21.79.32,1.66.32,2.6v9.09c-.62.13-1.5.3-2.61.49-1.11.19-2.48.28-4.07.28-1.01,0-1.91-.09-2.72-.26-.81-.17-1.52-.47-2.1-.88-.6-.41-1.05-.92-1.35-1.58-.32-.64-.47-1.43-.47-2.37s.17-1.66.54-2.28c.36-.62.86-1.13,1.46-1.49.6-.36,1.31-.64,2.1-.81.79-.17,1.61-.26,2.44-.26.58,0,1.07.02,1.52.06.45.04.79.11,1.07.19v-.41c0-.75-.24-1.34-.69-1.79-.45-.45-1.24-.68-2.36-.68-.75,0-1.48.06-2.21.17s-1.35.26-1.88.45l-.56-3.52c.26-.09.58-.17.96-.26.39-.09.79-.17,1.24-.23.45-.06.92-.13,1.43-.17.49-.02.99-.06,1.5-.06ZM146.23,107.18c.43,0,.83,0,1.24-.02.39-.02.71-.04.94-.09v-3.31c-.17-.04-.45-.09-.79-.13-.36-.04-.69-.06-.96-.06-.41,0-.79.02-1.16.06-.36.04-.69.15-.96.28-.28.13-.49.32-.64.55-.15.23-.24.53-.24.88,0,.68.24,1.15.69,1.43.43.28,1.07.41,1.88.41ZM160.4,107.1c.81,0,1.37-.09,1.71-.23.34-.15.49-.47.49-.92,0-.36-.21-.66-.64-.92s-1.09-.55-1.97-.9c-.69-.26-1.31-.51-1.86-.79-.56-.28-1.03-.6-1.43-.98-.39-.38-.71-.83-.92-1.37-.21-.53-.32-1.17-.32-1.9,0-1.45.54-2.6,1.63-3.44,1.07-.83,2.57-1.26,4.45-1.26.94,0,1.84.09,2.72.26.86.17,1.54.34,2.06.53l-.77,3.42c-.51-.17-1.07-.34-1.67-.47-.6-.13-1.26-.21-2.01-.21-1.37,0-2.06.38-2.06,1.15,0,.17.02.34.09.47.06.13.17.28.36.41.17.13.41.26.73.41.3.15.69.32,1.16.49.96.36,1.76.7,2.38,1.05.62.34,1.11.73,1.48,1.11.36.41.62.85.77,1.32.15.49.21,1.05.21,1.71,0,1.52-.58,2.67-1.71,3.46-1.16.79-2.78,1.17-4.88,1.17-1.37,0-2.53-.13-3.43-.36-.92-.23-1.54-.43-1.91-.6l.73-3.54c.75.3,1.52.53,2.29.68.79.17,1.56.26,2.33.26ZM168.52,102.64c0-1.37.21-2.56.64-3.61.43-1.02.98-1.88,1.67-2.56s1.48-1.2,2.38-1.56c.9-.36,1.82-.53,2.76-.53,2.21,0,3.94.66,5.22,2.01,1.28,1.34,1.91,3.31,1.91,5.91,0,.26,0,.53-.02.83-.02.3-.04.58-.06.81h-9.96c.11.9.51,1.62,1.26,2.13.75.53,1.76.79,3,.79.81,0,1.61-.06,2.38-.21.77-.15,1.41-.32,1.91-.53l.6,3.54c-.24.13-.56.23-.94.36-.39.13-.84.21-1.31.3-.47.09-1.01.17-1.54.21-.56.06-1.09.09-1.65.09-1.39,0-2.61-.21-3.64-.62-1.03-.41-1.88-.98-2.57-1.69-.69-.7-1.18-1.56-1.5-2.54-.39-.94-.54-2.01-.54-3.14ZM178.82,100.97c-.02-.36-.09-.73-.19-1.09-.11-.36-.28-.66-.49-.94-.24-.28-.51-.49-.86-.68-.34-.17-.77-.26-1.28-.26s-.92.09-1.26.26c-.36.17-.64.38-.88.66-.24.28-.41.6-.54.96-.13.36-.21.73-.28,1.11h5.78v-.02Z"/>
  <g>
    <g>
      <path class="cls-2" d="M93.67,121.35c0,2.18-1.63,3.78-3.64,3.78-1.2,0-2.34-.62-2.86-1.6v1.41h-.98v-11.08h.98v5.3c.54-.98,1.64-1.58,2.86-1.58,2.01,0,3.64,1.58,3.64,3.77ZM92.7,121.33c0-1.58-1.23-2.81-2.75-2.81-1.43,0-2.78,1.12-2.78,2.86s1.29,2.81,2.78,2.81,2.75-1.26,2.75-2.86Z"/>
      <path class="cls-2" d="M100.53,117.76h1.06l-4.5,10.67h-1.05l1.48-3.57-2.97-7.1h1.06l2.44,5.87,2.48-5.87Z"/>
    </g>
    <path class="cls-2" d="M127.29,121.49l-1.48-3.67h-2.5l2.81,6.27-1.75,4.35h2.41l4.39-10.61h-2.43l-1.45,3.67ZM131.8,124.92h2.26v-10.86h-2.26v10.86ZM138.75,117.63c-2.06-.07-3.78,1.53-3.86,3.59,0,.04,0,.09,0,.13,0,2.06,1.68,3.72,3.74,3.71.04,0,.08,0,.12,0,2.06.08,3.79-1.53,3.87-3.6,0-.04,0-.07,0-.11,0-2.06-1.69-3.73-3.75-3.72-.04,0-.08,0-.12,0M138.75,122.97c-.85.02-1.56-.66-1.57-1.51,0-.03,0-.07,0-.1-.04-.86.62-1.59,1.48-1.63.03,0,.06,0,.09,0,.86,0,1.56.68,1.57,1.54,0,.03,0,.06,0,.09.04.85-.62,1.57-1.47,1.61-.03,0-.07,0-.1,0M147.28,119.72c.53,0,1.04.26,1.36.69l1.74-1.1c-.68-1.06-1.85-1.69-3.11-1.68-2.07,0-3.92,1.45-3.92,3.71s1.85,3.72,3.92,3.72c1.26.01,2.43-.62,3.11-1.68l-1.74-1.1c-.32.43-.82.68-1.36.69-.86.05-1.6-.62-1.65-1.48,0-.05,0-.1,0-.15-.03-.86.64-1.59,1.5-1.62.05,0,.1,0,.15,0M152.33,114.11c-.75-.03-1.37.55-1.4,1.3,0,0,0,0,0,.01.03.75.66,1.33,1.4,1.31.74.01,1.35-.57,1.37-1.31,0-.73-.61-1.32-1.34-1.31-.01,0-.02,0-.03,0M151.19,124.92h2.26v-7.11h-2.26v7.11ZM155.77,115.25v2.56h-1.3v1.69h1.3v5.41h2.26v-5.41h1.85l2.05,4.57-1.75,4.35h2.41l4.39-10.61h-2.43l-1.45,3.67-1.48-3.67h-3.6v-2.56h-2.26ZM110.67,117.63c-.84-.02-1.64.32-2.2.95v-.76h-2.26v10.61h2.26v-4.32c.56.61,1.36.95,2.2.93,1.94-.02,3.49-1.61,3.47-3.55,0-.05,0-.1,0-.15.1-1.94-1.39-3.6-3.33-3.7-.04,0-.09,0-.13,0M110.2,122.95c-.9,0-1.63-.72-1.65-1.62.02-.89.75-1.61,1.65-1.6.9,0,1.63.7,1.65,1.6,0,.9-.75,1.62-1.65,1.62M120.41,118.59c-.56-.62-1.37-.97-2.21-.95-1.94.03-3.48,1.63-3.45,3.57,0,.05,0,.09,0,.14-.11,1.93,1.37,3.59,3.3,3.7.05,0,.09,0,.14,0,.84.02,1.65-.32,2.21-.95v.81h2.24v-7.11h-2.24v.78ZM118.69,122.95c-.9,0-1.63-.7-1.65-1.6.02-.89.75-1.61,1.65-1.6.89,0,1.62.71,1.63,1.6,0,.89-.74,1.61-1.63,1.6"/>
  </g>
  <path class="cls-3" d="M48.88,128.8l-15.98-13.49v-23.64l16.1,13.59,22.9-18.05.02,23.41-23.04,18.18ZM49,120.62l16.57-13.07v-7.26l-16.7,13.17-9.63-8.13v7.03l9.76,8.25Z"/>
  <path class="cls-2" d="M92.76,94.38c1.31,0,2.38.15,3.23.45.86.3,1.56.7,2.08,1.26.51.55.88,1.22,1.11,2.01.21.79.32,1.66.32,2.6v9.09c-.62.13-1.5.3-2.61.49-1.11.19-2.48.28-4.07.28-1.01,0-1.91-.09-2.72-.26-.81-.17-1.52-.47-2.1-.88-.6-.41-1.05-.92-1.35-1.58-.32-.64-.47-1.43-.47-2.37s.17-1.66.54-2.28c.36-.62.86-1.13,1.46-1.49.6-.36,1.31-.64,2.1-.81.79-.17,1.61-.26,2.44-.26.58,0,1.07.02,1.52.06.45.04.79.11,1.07.19v-.41c0-.75-.24-1.34-.69-1.79-.45-.45-1.24-.68-2.36-.68-.75,0-1.48.06-2.21.17-.73.11-1.35.26-1.88.45l-.56-3.52c.26-.09.58-.17.96-.26.39-.09.79-.17,1.24-.23.45-.06.92-.13,1.43-.17.49-.02.98-.06,1.5-.06ZM93.12,107.18c.43,0,.84,0,1.24-.02.39-.02.71-.04.94-.09v-3.31c-.17-.04-.45-.09-.79-.13-.36-.04-.69-.06-.96-.06-.41,0-.79.02-1.16.06-.36.04-.69.15-.96.28-.28.13-.49.32-.64.55-.15.23-.24.53-.24.88,0,.68.24,1.15.69,1.43.45.28,1.07.41,1.88.41ZM107.49,90.34c0,.81-.26,1.43-.77,1.9-.51.47-1.13.68-1.84.68s-1.33-.23-1.84-.68c-.51-.47-.77-1.09-.77-1.9s.26-1.43.77-1.9c.51-.47,1.13-.68,1.84-.68s1.33.23,1.84.68c.51.45.77,1.09.77,1.9ZM107.08,110.24h-4.39v-15.43h4.39v15.43ZM120.19,98.67c-.39-.11-.86-.19-1.39-.3-.54-.11-1.09-.17-1.71-.17-.28,0-.6.02-.98.06-.39.04-.66.11-.88.17v11.8h-4.39v-14.62c.79-.28,1.71-.53,2.78-.77,1.07-.23,2.27-.36,3.58-.36.24,0,.51.02.86.04.34.02.66.06,1.01.13.34.04.66.11,1.01.17.34.06.62.15.86.26l-.73,3.59ZM137.64,102.53c0,1.24-.17,2.35-.54,3.35-.36,1-.9,1.86-1.58,2.56-.69.7-1.54,1.24-2.53,1.62-1.01.38-2.14.58-3.43.58-.54,0-1.09-.02-1.67-.06-.58-.04-1.16-.11-1.71-.19-.56-.09-1.09-.17-1.61-.28-.51-.11-.96-.21-1.35-.34v-19.13l4.39-3.44v7.96c.49-.21,1.01-.38,1.54-.49.54-.13,1.09-.17,1.71-.17,1.09,0,2.08.19,2.91.58.84.38,1.54.92,2.12,1.62.58.7,1.01,1.56,1.31,2.54.28.96.43,2.07.43,3.29ZM133.16,102.4c0-2.82-1.05-4.23-3.13-4.23-.45,0-.9.06-1.35.17-.45.13-.79.26-1.07.45v7.96c.21.04.49.06.84.11.34.02.71.04,1.09.04,1.2,0,2.1-.41,2.72-1.24.58-.83.9-1.92.9-3.27ZM145.86,94.38c1.31,0,2.38.15,3.23.45.86.3,1.56.7,2.08,1.26.51.55.88,1.22,1.11,2.01.21.79.32,1.66.32,2.6v9.09c-.62.13-1.5.3-2.61.49-1.11.19-2.48.28-4.07.28-1.01,0-1.91-.09-2.72-.26-.81-.17-1.52-.47-2.1-.88-.6-.41-1.05-.92-1.35-1.58-.32-.64-.47-1.43-.47-2.37s.17-1.66.54-2.28c.36-.62.86-1.13,1.46-1.49.6-.36,1.31-.64,2.1-.81.79-.17,1.61-.26,2.44-.26.58,0,1.07.02,1.52.06.45.04.79.11,1.07.19v-.41c0-.75-.24-1.34-.69-1.79-.45-.45-1.24-.68-2.36-.68-.75,0-1.48.06-2.21.17s-1.35.26-1.88.45l-.56-3.52c.26-.09.58-.17.96-.26.39-.09.79-.17,1.24-.23.45-.06.92-.13,1.43-.17.49-.02.99-.06,1.5-.06ZM146.23,107.18c.43,0,.83,0,1.24-.02.39-.02.71-.04.94-.09v-3.31c-.17-.04-.45-.09-.79-.13-.36-.04-.69-.06-.96-.06-.41,0-.79.02-1.16.06-.36.04-.69.15-.96.28-.28.13-.49.32-.64.55-.15.23-.24.53-.24.88,0,.68.24,1.15.69,1.43.43.28,1.07.41,1.88.41ZM160.4,107.1c.81,0,1.37-.09,1.71-.23.34-.15.49-.47.49-.92,0-.36-.21-.66-.64-.92s-1.09-.55-1.97-.9c-.69-.26-1.31-.51-1.86-.79-.56-.28-1.03-.6-1.43-.98-.39-.38-.71-.83-.92-1.37-.21-.53-.32-1.17-.32-1.9,0-1.45.54-2.6,1.63-3.44,1.07-.83,2.57-1.26,4.45-1.26.94,0,1.84.09,2.72.26.86.17,1.54.34,2.06.53l-.77,3.42c-.51-.17-1.07-.34-1.67-.47-.6-.13-1.26-.21-2.01-.21-1.37,0-2.06.38-2.06,1.15,0,.17.02.34.09.47.06.13.17.28.36.41.17.13.41.26.73.41.3.15.69.32,1.16.49.96.36,1.76.7,2.38,1.05.62.34,1.11.73,1.48,1.11.36.41.62.85.77,1.32.15.49.21,1.05.21,1.71,0,1.52-.58,2.67-1.71,3.46-1.16.79-2.78,1.17-4.88,1.17-1.37,0-2.53-.13-3.43-.36-.92-.23-1.54-.43-1.91-.6l.73-3.54c.75.3,1.52.53,2.29.68.79.17,1.56.26,2.33.26ZM168.52,102.64c0-1.37.21-2.56.64-3.61.43-1.02.98-1.88,1.67-2.56s1.48-1.2,2.38-1.56c.9-.36,1.82-.53,2.76-.53,2.21,0,3.94.66,5.22,2.01,1.28,1.34,1.91,3.31,1.91,5.91,0,.26,0,.53-.02.83-.02.3-.04.58-.06.81h-9.96c.11.9.51,1.62,1.26,2.13.75.53,1.76.79,3,.79.81,0,1.61-.06,2.38-.21.77-.15,1.41-.32,1.91-.53l.6,3.54c-.24.13-.56.23-.94.36-.39.13-.84.21-1.31.3-.47.09-1.01.17-1.54.21-.56.06-1.09.09-1.65.09-1.39,0-2.61-.21-3.64-.62-1.03-.41-1.88-.98-2.57-1.69-.69-.7-1.18-1.56-1.5-2.54-.39-.94-.54-2.01-.54-3.14ZM178.82,100.97c-.02-.36-.09-.73-.19-1.09-.11-.36-.28-.66-.49-.94-.24-.28-.51-.49-.86-.68-.34-.17-.77-.26-1.28-.26s-.92.09-1.26.26c-.36.17-.64.38-.88.66-.24.28-.41.6-.54.96-.13.36-.21.73-.28,1.11h5.78v-.02Z"/>
  <g>
    <g>
      <path class="cls-2" d="M93.67,121.35c0,2.18-1.63,3.78-3.64,3.78-1.2,0-2.34-.62-2.86-1.6v1.41h-.98v-11.08h.98v5.3c.54-.98,1.64-1.58,2.86-1.58,2.01,0,3.64,1.58,3.64,3.77ZM92.7,121.33c0-1.58-1.23-2.81-2.75-2.81-1.43,0-2.78,1.12-2.78,2.86s1.29,2.81,2.78,2.81,2.75-1.26,2.75-2.86Z"/>
      <path class="cls-2" d="M100.53,117.76h1.06l-4.5,10.67h-1.05l1.48-3.57-2.97-7.1h1.06l2.44,5.87,2.48-5.87Z"/>
    </g>
    <path class="cls-2" d="M127.29,121.49l-1.48-3.67h-2.5l2.81,6.27-1.75,4.35h2.41l4.39-10.61h-2.43l-1.45,3.67ZM131.8,124.92h2.26v-10.86h-2.26v10.86ZM138.75,117.63c-2.06-.07-3.78,1.53-3.86,3.59,0,.04,0,.09,0,.13,0,2.06,1.68,3.72,3.74,3.71.04,0,.08,0,.12,0,2.06.08,3.79-1.53,3.87-3.6,0-.04,0-.07,0-.11,0-2.06-1.69-3.73-3.75-3.72-.04,0-.08,0-.12,0M138.75,122.97c-.85.02-1.56-.66-1.57-1.51,0-.03,0-.07,0-.1-.04-.86.62-1.59,1.48-1.63.03,0,.06,0,.09,0,.86,0,1.56.68,1.57,1.54,0,.03,0,.06,0,.09.04.85-.62,1.57-1.47,1.61-.03,0-.07,0-.1,0M147.28,119.72c.53,0,1.04.26,1.36.69l1.74-1.1c-.68-1.06-1.85-1.69-3.11-1.68-2.07,0-3.92,1.45-3.92,3.71s1.85,3.72,3.92,3.72c1.26.01,2.43-.62,3.11-1.68l-1.74-1.1c-.32.43-.82.68-1.36.69-.86.05-1.6-.62-1.65-1.48,0-.05,0-.1,0-.15-.03-.86.64-1.59,1.5-1.62.05,0,.1,0,.15,0M152.33,114.11c-.75-.03-1.37.55-1.4,1.3,0,0,0,0,0,.01.03.75.66,1.33,1.4,1.31.74.01,1.35-.57,1.37-1.31,0-.73-.61-1.32-1.34-1.31-.01,0-.02,0-.03,0M151.19,124.92h2.26v-7.11h-2.26v7.11ZM155.77,115.25v2.56h-1.3v1.69h1.3v5.41h2.26v-5.41h1.85l2.05,4.57-1.75,4.35h2.41l4.39-10.61h-2.43l-1.45,3.67-1.48-3.67h-3.6v-2.56h-2.26ZM110.67,117.63c-.84-.02-1.64.32-2.2.95v-.76h-2.26v10.61h2.26v-4.32c.56.61,1.36.95,2.2.93,1.94-.02,3.49-1.61,3.47-3.55,0-.05,0-.1,0-.15.1-1.94-1.39-3.6-3.33-3.7-.04,0-.09,0-.13,0M110.2,122.95c-.9,0-1.63-.72-1.65-1.62.02-.89.75-1.61,1.65-1.6.9,0,1.63.7,1.65,1.6,0,.9-.75,1.62-1.65,1.62M120.41,118.59c-.56-.62-1.37-.97-2.21-.95-1.94.03-3.48,1.63-3.45,3.57,0,.05,0,.09,0,.14-.11,1.93,1.37,3.59,3.3,3.7.05,0,.09,0,.14,0,.84.02,1.65-.32,2.21-.95v.81h2.24v-7.11h-2.24v.78ZM118.69,122.95c-.9,0-1.63-.7-1.65-1.6.02-.89.75-1.61,1.65-1.6.89,0,1.62.71,1.63,1.6,0,.89-.74,1.61-1.63,1.6"/>
  </g>
</svg>