<svg xmlns="http://www.w3.org/2000/svg" viewBox="0 0 1000 1000"><path fill="#FF2E63" fill-rule="nonzero" d="M417.67 0H51.83C23.204 0 0 23.205 0 51.83v896.34C0 976.796 23.205 1000 51.83 1000h896.34c28.625 0 51.83-23.205 51.83-51.83V51.83C1000 23.204 976.795 0 948.17 0H486.45v649.555c-1.71 32.47-11.963 58.103-31.615 77.755-38.45 38.451-105.098 43.578-163.202 43.578-78.61 0-184.562-10.254-202.506-94.845l-2.563-21.361c-.855-4.273-.855-16.235-.855-46.996V165.077c0-20.507 6.836-37.596 21.362-52.122 14.525-14.526 31.614-21.361 52.121-21.361l192.253.854 6.836 1.71v64.938H165.173c-5.127 0-7.69 2.563-7.69 5.981V310.335H302.74v66.648H157.483V650.409c1.708 47.85 72.628 57.249 132.44 57.249 26.489-.855 82.883-.855 108.517-26.488 6.835-6.836 13.246-19.653 19.23-38.45V0z"/></svg>