<svg xmlns="http://www.w3.org/2000/svg" viewBox="8 8 28 29" fill="none">
  <path d="M33.3 23.2557C33.3 22.458 33.2284 21.6909 33.0955 20.9546H22.5V25.3114H28.5545C28.2886 26.7125 27.4909 27.8989 26.2943 28.6966V31.5296H29.9455C32.0727 29.5659 33.3 26.6818 33.3 23.2557Z" fill="#4285F4"/>
  <path d="M22.4997 34.2496C25.5372 34.2496 28.0838 33.2473 29.9452 31.5292L26.294 28.6962C25.2918 29.3712 24.0134 29.7803 22.4997 29.7803C19.5747 29.7803 17.0895 27.8064 16.1997 25.1473H12.4565V28.0519C14.3077 31.7235 18.102 34.2496 22.4997 34.2496Z" fill="#34A853"/>
  <path d="M16.2 25.1378C15.975 24.4628 15.842 23.7469 15.842 23.0003C15.842 22.2537 15.975 21.5378 16.2 20.8628V17.9583H12.4568C11.6898 19.4719 11.25 21.1799 11.25 23.0003C11.25 24.8208 11.6898 26.5287 12.4568 28.0424L15.3716 25.7719L16.2 25.1378Z" fill="#FBBC05"/>
  <path d="M22.4997 16.2295C24.1565 16.2295 25.6293 16.8023 26.8054 17.9068L30.027 14.6852C28.0736 12.8648 25.5372 11.75 22.4997 11.75C18.102 11.75 14.3077 14.2761 12.4565 17.958L16.1997 20.8625C17.0895 18.2034 19.5747 16.2295 22.4997 16.2295Z" fill="#EA4335"/>
</svg>