<?xml version="1.0" encoding="UTF-8"?>
<svg id="Layer_2" data-name="Layer 2" xmlns="http://www.w3.org/2000/svg" viewBox="0 0 800 194.58">
  <defs>
    <style>
      .cls-1 {
        fill: #101828;
        stroke-width: 0px;
      }
    </style>
  </defs>
  <g id="Layer_1-2" data-name="Layer 1">
    <g>
      <rect class="cls-1" x="731.88" y="43.56" width="29.15" height="103.95"/>
      <path class="cls-1" d="M560.14,147.51c-12.04,0-21.95,9.51-21.95,21.95s9.91,21.95,21.95,21.95,21.95-9.51,21.95-21.95-9.56-21.95-21.95-21.95Z"/>
      <path class="cls-1" d="M676.41,43.91v8.07c-7.82-5.26-17.07-8.07-28.44-8.07-27.73,0-50.13,22.83-50.13,51.97s22.4,51.62,50.13,51.62c11.37,0,20.62-3.16,28.44-8.07v8.07h29.15V43.9h-29.15ZM676.41,111.69c-6.4,8.43-14.93,11.59-23.47,11.59-15.29,0-25.95-12.64-25.95-27.39s10.67-27.74,25.95-27.74c8.18,0,16.71,2.81,23.47,11.59v31.96h0Z"/>
      <path class="cls-1" d="M768.15,5.39c14.59,0,26.47,11.87,26.47,26.47v127.35c0,14.59-11.87,26.47-26.47,26.47h-165.34c1.89-5.13,2.87-10.61,2.87-16.22,0-12.43-4.67-23.95-13.15-32.41-7.23-7.22-16.67-11.67-26.99-12.82V31.86c0-14.59,11.87-26.47,26.47-26.47h176.15M768.15,0h-176.15c-17.59,0-31.85,14.26-31.85,31.85v97.45c22.66,0,40.14,17.4,40.14,40.14,0,8.05-2.23,15.42-6.07,21.6h173.93c17.59,0,31.85-14.26,31.85-31.85V31.85c0-17.59-14.26-31.85-31.85-31.85h0Z"/>
      <g>
        <path class="cls-1" d="M87.41,114.45l52.3-56.14h-48.62l-52.01,56.43V0H0v194.05h39.08v-28.08l21.67-22.94,35.68,51.02h49.18l-58.19-79.61h0Z"/>
        <path class="cls-1" d="M326.47,75.53v-17.3h-38.47v135.82h38.47v-79.75c11.09-12.27,25.74-18.42,46.48-19.22v-36.83c-19.64,0-34.59,6.14-46.48,17.27h0Z"/>
        <path class="cls-1" d="M159.02,77.53c21.18-20.78,52.52-25.44,78.78-11.87,5.93,2.97,11.44,7.21,16.52,11.87,14.41,13.99,21.18,32.66,20.33,51.32-1.69-11.03-7.2-21.63-15.67-30.11-22.03-22.05-57.6-22.05-79.63,0-14.83,14.85-14.83,39.44,0,54.7,5.51,5.51,12.28,9.33,19.48,10.6-14.41,1.27-29.22-3.4-40.24-14.42-19.91-19.5-19.91-51.74-.42-71.24l.42-.42.42-.42h0Z"/>
        <path class="cls-1" d="M254.32,174.64c-12.7,12.72-30.07,19.93-47.86,19.93s-35.15-7.21-48.28-19.93c-12.7-12.72-19.91-30.11-19.91-48.34v-3.4c1.69,11.03,7.2,22.05,15.67,30.53,10.59,10.6,24.56,16.54,39.81,16.54,13.13,0,25.84-4.67,35.58-12.72,1.27-1.27,2.97-2.54,4.24-3.82l.42-.42c14.83-15.27,14.83-39.02,0-53.86-5.08-5.09-11.01-8.48-17.79-10.18h3.39c13.55,0,25.84,5.51,35.15,15.27,18.63,19.08,19.06,49.62.85,69.13,0,0,0,.42-.42.42l-.85.85h0Z"/>
        <path class="cls-1" d="M182.32,102.04l.17-.16s-.09.08-.13.13l-.04.04h0Z"/>
        <path class="cls-1" d="M253.83,174.12l.08-.09-.26.26.19-.18Z"/>
        <g>
          <path class="cls-1" d="M445.4,161.91c-18.81,0-28.67-10.2-32.34-23.71-.93-3.15-2.09-8.95-1.64-17.36.94-17.35,11.33-35.88,37.73-35.88,16.1,0,29.7,5.82,40.43,17.3,10.57,11.31,15.17,24.86,17.04,32.38.55-3.89.8-7.81.76-11.73,0-39.87-27.23-65.95-63.81-65.95-40.36,0-67.85,28.79-67.85,68.62s27.75,68.41,68.87,68.41c30.2,0,54.23-16.99,61.16-41.78h-38.67c-4.02,6.47-11.24,9.71-21.67,9.71h0Z"/>
          <path class="cls-1" d="M458.35,91.63c6.61,4.04,10.82,11.26,12.14,21.29h-51.88c-.91,3.38-1.23,6.36-1.33,8.23-.34,6.34.33,10.97,1,13.83h82.34c-5.07-19.3-18.58-39.22-42.28-43.35Z"/>
        </g>
      </g>
    </g>
  </g>
</svg>