<svg xmlns="http://www.w3.org/2000/svg" xml:space="preserve" viewBox="0 0 417 152"><path fill="#FFF" d="M254 153c-14.688 0-29.375 0-44.397-.37 12.335-2.457 18.834-8.215 21.315-19.81 2.064-9.645-3.832-19.584-14.61-24.726-7.405-3.532-15.144-6.364-22.555-9.884-6.059-2.879-7.899-7.612-5.36-13.003 2.078-4.408 6.18-5.84 10.714-6.195 9.264-.727 18.147.788 26.744 5.369V72.2c-12.069-5.274-24.226-6.599-36.873-2.282-7.846 2.679-12.568 7.982-13.893 15.949-1.434 8.61.959 16.505 8.706 20.91 7.916 4.5 16.582 7.73 25.055 11.185 6.64 2.708 9.88 6.971 9.152 13.132-.52 4.411-6.084 8.751-11.427 10-7.644 1.787-14.815.373-22.03-1.862-2.99-.926-6.053-1.616-9.541-2.533 0 2.659.232 4.674-.05 6.615-.55 3.79.942 5.802 4.644 6.6 4.163.899 8.273 2.047 12.406 3.086-26.688 0-53.375 0-80.386-.378 11.54-1.405 13.126-3.125 12.2-13.975-.013-.154-.126-.3-.297-.685-.873.221-1.864.298-2.69.708-6.521 3.239-13.49 3.766-20.568 3.298-7.644-.506-13.508-7.833-12.752-16.106h39.925c-.505-5.498-.82-10.553-1.467-15.565-.932-7.213-3.623-13.596-10.51-17.027-2.961-1.475-6.356-2.29-9.648-2.85-9.116-1.552-22.834 1.713-27.858 12.631-4.565 9.921-4.643 19.967-2.148 30.387 1.641 6.856 4.951 12.405 11.096 15.813 3.106 1.722 6.72 2.528 10.103 3.749-32 0-64 0-95.536-.5 4.067-.5 7.67-.5 11.68-.5V92.23c.704.393 1.065.474 1.215.696 12.553 18.641 25.035 37.331 37.726 55.878 1.064 1.555 3.422 2.688 5.363 3.066 2.67.52 5.516.13 8.292.13V69.275H52.7v58.352c-1.225-.935-1.866-1.215-2.194-1.705-10.53-15.7-21.433-31.17-31.35-47.248C14.651 71.372 9.785 67.129 1 69c0-13.354 0-26.708.338-40.448 5.12 7.286 11.549 11.42 21.065 10.562 6.586-.594 13.268-.177 19.906-.1 13.114.15 21.343-13.741 16.542-26.596C56.521 6.181 51.23 3.734 46 1c5.355 0 10.71 0 16.532.469C63 14.21 63 26.485 63 38.703h8.19V9c8.089 0 15.738-.063 23.384.067 1.157.02 2.877.632 3.323 1.495.869 1.68 1.952 4.266 1.245 5.504-1.012 1.769-3.482 3.612-5.451 3.757-6.375.468-12.805.175-20.79.175 6.358 5.405 12.226 9.255 16.57 14.394 4.752 5.619 10.242 4.547 17.158 4.51l-13.13-11.861c10.341 1.34 17.993-9.878 12.925-18.845C104.716 5.176 100.869 3.364 98 1c10.688 0 21.375 0 32.446.34-7.596 12.61-15.575 24.88-23.58 37.192 6.774 1.637 11.498.242 14.102-6.031.874-2.105 2.48-3.905 4.648-7.213 1.685 9.667 8.016 7.566 13.366 7.706 1.497.04 3 .073 4.494-.008 3.417-.185 6.634-.296 7.677 4.165.188.807 1.927 1.643 3.027 1.765 2.41.266 4.869.082 8.276.082L138 1c11.02 0 22.042 0 33.416.353C161.98 4.143 157 11.491 157.22 19.965c.24 9.177 4.271 16.664 14.388 18.615 7.058 1.36 14.606-.056 21.87.555 5.645.474 7.812-2.38 9.586-7.136-8.73 0-17.041.143-25.344-.044-6.913-.155-13.426-6.032-12.584-11.691.936-6.296 6.07-12.216 12.967-11.384 5.081.612 10.295.128 15.45.118 5.112-.01 7.6-2.374 8.448-7.998.75 0 1.5 0 2.625.469.375 10.8.376 21.133.375 31.465 0 4.117 1.51 6.303 6.175 6.148 8.656-.287 17.356-.499 25.985.066 5.645.37 7.951-2.266 9.508-7.332H214V1c14.688 0 29.375 0 44.416.353-10.648 2.923-15.368 12.813-14.252 21.11 1.314 9.765 8.688 17.234 19.273 16.597 5.638-.339 11.361-.52 16.958.069 5.638.593 7.854-2.323 9.724-7.13-8.587 0-16.72.07-24.852-.021-6.36-.072-10.226-2.84-11.51-8.083h29.827c.656-1.35 1.204-2.532 1.802-3.688.622-1.203 1.293-2.381 2.298-4.221h-34.571c2.846-4.736 6.239-7.277 11.56-7.036 5.149.232 10.316.053 15.475.05 5.607-.005 7.88-2.063 8.852-8h129c0 35.02 0 70.042-.346 105.426-3.82-10.059-11.36-15.467-22.004-16.324-9.239-.744-21.46 2.123-26.543 13.28-3.88 8.516-3.65 17.316-2.68 26.032.524 4.721 2.94 9.448 5.348 13.692 3.459 6.096 10.16 7.647 16.225 9.894-40.688 0-81.375 0-122.404-.363 4.548-2.618 9.438-4.872 14.29-7.108l1.511 6.274h8.237V92.204H278.62c-.308.325-.522.445-.523.565-.043 10.651-.36 21.312-.004 31.95.277 8.257-3.836 13.564-10.762 16.286-6.945 2.73-13.183 1.727-15.336-6.355-.866-3.25-.918-6.776-.954-10.18-.112-10.75-.041-21.5-.041-32.155h-13c0 11.614-.081 22.915.022 34.214.11 11.922 3.4 22.026 15.978 26.471m82.993-9.742c3.006 8.953 13 9.966 23.666 8.098V141c-2.666 0-5.302.689-7.232-.184-2.145-.97-5.105-3.3-5.186-5.149-.484-11.074-.24-22.18-.24-33.696h11.762V91.928h-11.846V76.152h-8.622c-.423 1.76-1.129 3.583-1.264 5.447-.585 8.024-5.013 12.114-12.733 12.949v7.647H335c0 9.556-.192 18.69.086 27.81.127 4.158 1.18 8.287 1.907 13.253M142.95 80.268c-.643 1.994-1.643 3.953-1.848 5.991-.353 3.511-1.408 6.262-5.299 6.69-5.735.632-6.74 3.915-5.279 9.211H140c0 11.909-.097 23.385.032 34.86.094 8.412 4.457 13.269 12.105 14.812 4.089.824 8.481.146 12.514.146v-10.894c-13.142.364-12.937-2.45-12.655-12.714.032-1.166.004-2.333.004-3.5v-23.172h11.793V91.98h-11.837V75.74c-3.327 1.452-8.02-2.618-9.006 4.527M306 110.564v41.138h11.739V92.223h-18.16c.538 2.302.51 5.668 1.545 6.034 6.031 2.139 4.812 6.922 4.876 12.307m10.275-38.556h-12.898v11.79h14.926c-.373-4.067-.723-7.894-2.028-11.79z"/><path fill="#312D2A" d="M1 69.469c8.786-2.34 13.652 1.903 18.155 9.205 9.918 16.078 20.821 31.548 31.35 47.248.33.49.97.77 2.194 1.705V69.275h13.04V152c-2.775 0-5.621.39-8.29-.13-1.942-.378-4.3-1.511-5.364-3.066-12.69-18.547-25.173-37.237-37.726-55.878-.15-.222-.51-.303-1.215-.697V152H1.464C1 124.646 1 97.292 1 69.469zM192.468 153c-4.601-1.04-8.71-2.187-12.874-3.085-3.702-.799-5.194-2.81-4.643-6.601.281-1.94.049-3.956.049-6.615 3.488.917 6.55 1.607 9.54 2.533 7.216 2.235 14.387 3.649 22.031 1.862 5.343-1.249 10.906-5.589 11.427-10 .727-6.16-2.513-10.424-9.152-13.132-8.473-3.455-17.139-6.686-25.055-11.186-7.747-4.404-10.14-12.298-8.706-20.91 1.325-7.966 6.047-13.27 13.893-15.948 12.647-4.317 24.804-2.992 36.873 2.282v12.18c-8.597-4.58-17.48-6.095-26.744-5.368-4.534.355-8.636 1.787-10.713 6.195-2.54 5.391-.7 10.124 5.36 13.003 7.41 3.52 15.15 6.352 22.554 9.884 10.778 5.142 16.674 15.081 14.61 24.726-2.481 11.595-8.98 17.353-21.783 19.81-5.49.37-10.845.37-16.667.37zM97.465 153c-3.849-1.22-7.462-2.027-10.568-3.75-6.145-3.407-9.455-8.956-11.096-15.812-2.495-10.42-2.417-20.466 2.148-30.387 5.024-10.918 18.742-14.183 27.858-12.632 3.292.56 6.687 1.376 9.648 2.851 6.887 3.43 9.578 9.814 10.51 17.027.647 5.012.962 10.067 1.467 15.565H87.507c-.756 8.273 5.108 15.6 12.752 16.106 7.078.468 14.047-.06 20.568-3.298.826-.41 1.817-.487 2.69-.708.17.385.284.531.297.685.926 10.85-.66 12.57-12.669 13.975-4.502.378-8.859.378-13.68.378m15.507-46.214c-2.966-5.227-9.048-7.38-15.659-5.543-6.395 1.777-10.173 7.198-10.03 14.49h28.173c-.86-2.982-1.605-5.568-2.484-8.947zM388.465 153c-6.53-2.247-13.231-3.798-16.69-9.894-2.409-4.244-4.824-8.971-5.349-13.692-.97-8.716-1.198-17.516 2.681-26.032 5.082-11.157 17.304-14.024 26.543-13.28 10.643.857 18.184 6.265 22.004 16.793.346 6.126.346 12.147-.123 18.637-13.343.468-26.218.468-39.169.468 2.115 10.626 6.35 15.966 13.941 15.832 7.486-.131 14.948-1.62 22.697-2.547 0 1.24-.206 3.554.05 5.816.362 3.21-.884 4.8-4.02 5.436-3.05.62-6.023 1.626-9.03 2.463h-13.535m-8.44-44.19-2.016 6.882h27.871c.264-8.2-2.475-12.897-8.25-14.473-6.931-1.89-13.665.798-17.606 7.59zM254.458 153c-13.036-4.445-16.327-14.549-16.436-26.471-.103-11.3-.022-22.6-.022-34.214h13c0 10.654-.07 21.406.041 32.155.036 3.404.088 6.93.954 10.18 2.153 8.082 8.39 9.085 15.336 6.355 6.926-2.722 11.04-8.03 10.762-16.286-.356-10.638-.039-21.299.004-31.95 0-.12.215-.24.523-.565h11.014v59.6h-8.237l-1.511-6.275c-4.852 2.236-9.742 4.49-14.76 7.108-3.487.363-6.849.363-10.668.363zM45.531 1c5.698 2.734 10.99 5.181 13.32 11.418 4.801 12.855-3.428 26.746-16.542 26.595-6.638-.076-13.32-.493-19.906.101-9.516.859-15.945-3.276-21.065-11.03C1 22.312 1 16.624 1.382 10.468 6.175 7 10.588 4 15 1h30.531m2.402 10.405c-2.39-.802-4.751-2.178-7.174-2.295-6.633-.32-13.292-.114-19.941-.109-6.605.005-11.434 4.112-11.845 9.794-.548 7.557 3.898 12.425 11.2 13.075 6.761.602 13.624.298 20.431.074 5.255-.173 8.892-3.4 10.753-7.968 1.775-4.355.721-8.627-3.424-12.571zM288.531 1c-.503 5.937-2.776 7.995-8.383 8-5.159.003-10.326.182-15.474-.05-5.322-.241-8.715 2.3-11.561 7.036h34.571c-1.005 1.84-1.676 3.018-2.298 4.221-.598 1.156-1.146 2.338-1.802 3.688h-29.827c1.284 5.244 5.15 8.01 11.51 8.083 8.132.091 16.265.022 24.852.022-1.87 4.806-4.086 7.722-9.724 7.129-5.597-.589-11.32-.408-16.958-.069-10.585.637-17.959-6.832-19.273-16.596-1.116-8.298 3.604-18.188 14.721-21.11C268.688 1 278.375 1 288.531 1zM97.531 1c3.338 2.364 7.185 4.176 8.893 7.197 5.068 8.967-2.584 20.186-12.925 18.845l13.13 11.86c-6.916.038-12.406 1.11-17.157-4.51C85.127 29.255 79.259 25.405 72.9 20c7.986 0 14.416.293 20.79-.175 1.97-.145 4.44-1.988 5.452-3.757.707-1.238-.376-3.823-1.245-5.504-.446-.863-2.166-1.476-3.323-1.495C86.928 8.938 79.28 9 71.191 9v29.702H63V1.469C74.354 1 85.708 1 97.531 1zM137.563 1c8.452 12.454 16.467 24.907 24.893 37.998-3.407 0-5.866.184-8.276-.082-1.1-.122-2.839-.958-3.027-1.765-1.043-4.461-4.26-4.35-7.677-4.165-1.494.081-2.997.047-4.494.008-5.35-.14-11.68 1.961-13.366-7.706-2.168 3.308-3.774 5.108-4.648 7.213-2.604 6.273-7.328 7.668-14.103 6.031 8.006-12.311 15.985-24.582 24.05-37.192 2.127-.34 4.168-.34 6.648-.34m4 21.055c-2.307-3.672-4.612-7.345-7.11-11.323L125.9 24.765h16.65a16.109 16.109 0 0 0-.989-2.71zM201.531 1c-.379 5.624-2.867 7.988-7.979 7.998-5.155.01-10.369.494-15.45-.118-6.898-.832-12.03 5.088-12.967 11.384-.842 5.66 5.671 11.536 12.584 11.691 8.303.187 16.613.044 25.344.044-1.774 4.756-3.941 7.61-9.586 7.136-7.264-.61-14.812.806-21.87-.555-10.117-1.951-14.149-9.438-14.388-18.615-.22-8.474 4.76-15.822 14.666-18.612C181.688 1 191.375 1 201.531 1z"/><path fill="#FFF" d="M402.471 153c2.536-.837 5.508-1.843 8.559-2.463 3.136-.637 4.382-2.226 4.02-5.436-.256-2.262-.05-4.576-.05-5.816-7.75.927-15.211 2.416-22.697 2.547-7.592.134-11.826-5.206-13.94-15.832h39.168c.469 8.906.469 17.813.469 27h-15.529z"/><path fill="#312D2A" d="M213.55 1c.45 10.141.45 20.282.45 30.816h32.668c-1.557 5.066-3.863 7.702-9.508 7.332-8.629-.565-17.329-.353-25.985-.066-4.666.155-6.175-2.031-6.175-6.148V1.469C207.7 1 210.4 1 213.55 1z"/><path fill="#FFF" d="M14.526 1c-3.938 3-8.35 6-13.144 9C1 7.06 1 4.12 1 1h13.526z"/><path fill="#312D2A" d="M336.945 142.846c-.68-4.554-1.732-8.683-1.859-12.84-.278-9.12-.086-18.255-.086-27.811h-9.702v-7.647c7.72-.835 12.148-4.925 12.733-12.949.135-1.864.84-3.688 1.264-5.447h8.622v15.776h11.846v10.042H348c0 11.515-.244 22.622.24 33.696.08 1.849 3.041 4.179 5.186 5.149 1.93.873 4.566.184 7.232.184v10.357c-10.667 1.868-20.66.855-23.714-8.51zM142.973 79.838c.964-6.715 5.656-2.645 8.983-4.097v16.24h11.837v9.717H152v23.173c0 1.166.028 2.333-.004 3.499-.282 10.264-.487 13.078 12.655 12.714v10.894c-4.033 0-8.425.678-12.514-.146-7.648-1.543-12.01-6.4-12.105-14.813-.129-11.474-.032-22.95-.032-34.859h-9.476c-1.46-5.296-.456-8.579 5.28-9.21 3.89-.429 4.945-3.18 5.298-6.69.205-2.04 1.205-3.998 1.87-6.422zM306 110.077c-.064-4.898 1.155-9.681-4.876-11.82-1.035-.366-1.007-3.732-1.544-6.034h18.159v59.479H306v-41.625zM316.752 72.043c.828 3.861 1.178 7.688 1.551 11.755h-14.926v-11.79c4.088 0 8.493 0 13.375.035z"/><path fill="#FFF" d="M113.04 107.183a578.084 578.084 0 0 0 2.416 8.55H87.283c-.143-7.292 3.635-12.713 10.03-14.49 6.61-1.837 12.693.316 15.726 5.94zM380.2 108.46c3.765-6.443 10.499-9.132 17.43-7.24 5.775 1.575 8.514 6.272 8.25 14.472h-27.87c.68-2.327 1.347-4.605 2.19-7.233zM48.205 11.695c3.873 3.654 4.927 7.926 3.152 12.28-1.861 4.57-5.498 7.796-10.753 7.97-6.807.223-13.67.527-20.431-.075-7.302-.65-11.748-5.518-11.2-13.075.411-5.682 5.24-9.789 11.845-9.794 6.649-.005 13.308-.21 19.941.11 2.423.116 4.784 1.492 7.446 2.584zM141.764 22.387c.375.936.547 1.54.787 2.378H125.9l8.552-14.033c2.498 3.978 4.803 7.65 7.311 11.655z"/></svg>