<svg xmlns="http://www.w3.org/2000/svg" fill="none" viewBox="0 0 692 692"><g clip-path="url(#a)"><path fill="#fff" d="M0 0h692v692H0z"/><path fill="url(#b)" d="M0 0h692v692H0z"/><path fill="#fff" d="M296.746 385.246c-44.828-61.504 42.338-109.412 42.338-109.412l72.846 124.302c3.113 0-71.601 42.081-115.184-14.89Zm-42.337-160.557c-6.849 0-14.32-7.121-14.32-14.89s6.848-14.891 14.32-14.891c7.471 0 14.32 7.122 14.32 14.891s-6.849 14.89-14.32 14.89Zm213.556 226.592S337.216 236.342 296.746 185.197c0 0 0-3.237-3.113-3.237l-8.716-9.063c-11.207-9.064-23.66-14.891-37.98-14.891h-3.113c-3.113 0-5.603 0-11.207 3.237-14.32 3.237-29.263 17.48-37.979 33.665-33.621 5.827-91.524 5.827-88.411 23.307l81.562 17.48c8.717 81.573 34.867 169.62 102.731 217.528 57.281 39.492 138.843 36.255 138.843 36.255l81.562 64.093 63.506-30.428-106.466-73.157v1.295Zm-102.731-187.1 75.958 121.065s70.355-51.145 37.98-112.649c-34.867-71.862-113.938-9.064-113.938-9.064"/></g><defs><linearGradient id="b" x1="-12.494" x2="793.872" y1="-54.577" y2="185.936" gradientUnits="userSpaceOnUse"><stop stop-color="#1156BC"/><stop offset=".534" stop-color="#763EAC"/><stop offset="1" stop-color="#3B3270"/></linearGradient><clipPath id="a"><path fill="#fff" d="M0 0h692v692H0z"/></clipPath></defs></svg>